<svg width="500" height="166" viewBox="0 0 196 166" fill="none" xmlns="http://www.w3.org/2000/svg">
<path d="M1.96902 40.7429C2.32018 18.6543 20.513 0.877854 42.6038 1.03813L156.001 1.86086C178.092 2.02114 195.715 20.0574 195.364 42.146L194.031 126.005C193.68 148.094 175.487 165.87 153.396 165.71L39.9989 164.887C17.9081 164.727 0.284673 146.691 0.635836 124.602L1.96902 40.7429Z" fill="black"/>
<path d="M118.713 80.352C118.883 80.6933 119.182 81.12 119.609 81.632C120.974 83.3387 122.254 85.0453 123.449 86.752C124.729 88.3733 125.795 90.1227 126.649 92C127.587 93.792 128.227 95.7973 128.569 98.016C128.91 100.235 128.825 102.709 128.313 105.44C127.63 109.451 126.307 112.736 124.345 115.296C122.467 117.771 120.163 119.691 117.433 121.056C114.702 122.421 111.673 123.36 108.345 123.872C105.017 124.299 101.561 124.512 97.9768 124.512C94.4782 124.597 90.9368 124.512 87.3528 124.256C83.8542 124 80.5688 123.829 77.4968 123.744C76.9848 123.744 76.4728 123.744 75.9608 123.744C75.5342 123.744 75.1075 123.659 74.6808 123.488C74.1688 108.725 74.0408 94.0907 74.2968 79.584C74.5528 64.992 74.5528 50.272 74.2968 35.424L74.4248 35.296C77.8382 34.3573 81.4648 33.632 85.3048 33.12C89.1448 32.608 92.9422 32.4373 96.6968 32.608C100.451 32.7787 104.035 33.3333 107.449 34.272C110.947 35.2107 114.019 36.7467 116.665 38.88C119.31 40.928 121.401 43.616 122.937 46.944C124.473 50.1867 125.241 54.1973 125.241 58.976C125.241 62.56 124.601 66.0587 123.321 69.472C122.126 72.8853 120.675 76.0427 118.969 78.944C118.627 79.5413 118.542 80.0107 118.713 80.352ZM104.505 105.184C105.699 104.672 106.723 103.904 107.577 102.88C108.515 101.6 108.942 100.064 108.857 98.272C108.857 96.48 108.558 94.8587 107.961 93.408C107.449 92.384 106.681 91.488 105.657 90.72C104.633 89.8667 103.566 89.312 102.457 89.056C100.835 88.6293 99.1715 88.416 97.4648 88.416C95.7582 88.3307 94.0942 88.2027 92.4728 88.032C92.1315 89.312 91.8328 90.7627 91.5768 92.384C91.3208 94.0053 91.1502 95.6693 91.0648 97.376C91.0648 98.9973 91.1928 100.576 91.4488 102.112C91.7048 103.648 92.1742 104.928 92.8568 105.952L93.1128 106.08C94.3075 106.08 95.5448 106.123 96.8248 106.208C98.1902 106.208 99.5128 106.165 100.793 106.08C102.158 105.909 103.395 105.611 104.505 105.184ZM104.633 69.344C105.827 68.6613 106.766 67.68 107.449 66.4C108.046 65.376 108.558 64.1813 108.985 62.816C109.411 61.4507 109.283 60.0853 108.601 58.72C107.918 57.3547 107.022 56.3307 105.913 55.648C104.889 54.88 103.694 54.3253 102.329 53.984C100.622 53.6427 98.7875 53.472 96.8248 53.472C94.9475 53.3867 93.3688 53.6853 92.0888 54.368C92.2595 56.3307 92.1742 58.72 91.8328 61.536C91.5768 64.352 91.8328 67.2533 92.6008 70.24C93.8808 70.4107 95.2462 70.5387 96.6968 70.624C98.1475 70.7093 99.5555 70.6667 100.921 70.496C102.286 70.3253 103.523 69.9413 104.633 69.344Z" fill="#DA6900"/>
</svg>
