<svg width="31.88" height="32" viewBox="0 0 133 166" fill="none" xmlns="http://www.w3.org/2000/svg">
<path d="M1.68225 40.7456C1.91949 18.6555 20.0194 0.940249 42.1095 1.17749L92.7622 1.7215C114.852 1.95874 132.568 20.0586 132.33 42.1488L131.43 126.002C131.193 148.092 113.093 165.808 91.0025 165.57L40.3498 165.026C18.2597 164.789 0.544429 146.689 0.781674 124.599L1.68225 40.7456Z" fill="black"/>
<path d="M83.6619 80.352C83.8326 80.6933 84.1313 81.12 84.5579 81.632C85.9233 83.3387 87.2033 85.0453 88.3979 86.752C89.6779 88.3733 90.7446 90.1227 91.5979 92C92.5366 93.792 93.1766 95.7973 93.5179 98.016C93.8593 100.235 93.7739 102.709 93.2619 105.44C92.5793 109.451 91.2566 112.736 89.2939 115.296C87.4166 117.771 85.1126 119.691 82.3819 121.056C79.6513 122.421 76.6219 123.36 73.2939 123.872C69.9659 124.299 66.5099 124.512 62.9259 124.512C59.4273 124.597 55.8859 124.512 52.3019 124.256C48.8033 124 45.5179 123.829 42.4459 123.744C41.9339 123.744 41.4219 123.744 40.9099 123.744C40.4833 123.744 40.0566 123.659 39.6299 123.488C39.1179 108.725 38.9899 94.0907 39.2459 79.584C39.5019 64.992 39.5019 50.272 39.2459 35.424L39.3739 35.296C42.7873 34.3573 46.4139 33.632 50.2539 33.12C54.0939 32.608 57.8913 32.4373 61.6459 32.608C65.4006 32.7787 68.9846 33.3333 72.3979 34.272C75.8966 35.2107 78.9686 36.7467 81.6139 38.88C84.2593 40.928 86.3499 43.616 87.8859 46.944C89.4219 50.1867 90.1899 54.1973 90.1899 58.976C90.1899 62.56 89.5499 66.0587 88.2699 69.472C87.0753 72.8853 85.6246 76.0427 83.9179 78.944C83.5766 79.5413 83.4913 80.0107 83.6619 80.352ZM69.4539 105.184C70.6486 104.672 71.6726 103.904 72.5259 102.88C73.4646 101.6 73.8913 100.064 73.8059 98.272C73.8059 96.48 73.5073 94.8587 72.9099 93.408C72.3979 92.384 71.6299 91.488 70.6059 90.72C69.5819 89.8667 68.5153 89.312 67.4059 89.056C65.7846 88.6293 64.1206 88.416 62.4139 88.416C60.7073 88.3307 59.0433 88.2027 57.4219 88.032C57.0806 89.312 56.7819 90.7627 56.5259 92.384C56.2699 94.0053 56.0993 95.6693 56.0139 97.376C56.0139 98.9973 56.1419 100.576 56.3979 102.112C56.6539 103.648 57.1233 104.928 57.8059 105.952L58.0619 106.08C59.2566 106.08 60.4939 106.123 61.7739 106.208C63.1393 106.208 64.4619 106.165 65.7419 106.08C67.1073 105.909 68.3446 105.611 69.4539 105.184ZM69.5819 69.344C70.7766 68.6613 71.7153 67.68 72.3979 66.4C72.9953 65.376 73.5073 64.1813 73.9339 62.816C74.3606 61.4507 74.2326 60.0853 73.5499 58.72C72.8673 57.3547 71.9713 56.3307 70.8619 55.648C69.8379 54.88 68.6433 54.3253 67.2779 53.984C65.5713 53.6427 63.7366 53.472 61.7739 53.472C59.8966 53.3867 58.3179 53.6853 57.0379 54.368C57.2086 56.3307 57.1233 58.72 56.7819 61.536C56.5259 64.352 56.7819 67.2533 57.5499 70.24C58.8299 70.4107 60.1953 70.5387 61.6459 70.624C63.0966 70.7093 64.5046 70.6667 65.8699 70.496C67.2353 70.3253 68.4726 69.9413 69.5819 69.344Z" fill="#DA6900"/>
</svg>
